<?xml version="1.0" encoding="UTF-8"?>
<svg version="1.1" xmlns="http://www.w3.org/2000/svg" width="67" height="67">
<path d="M0 0 C21.45 0 42.9 0 65 0 C61.0785569 4.57501695 57.20779837 8.93250354 52.9453125 13.15234375 C52.12569534 13.96983849 52.12569534 13.96983849 51.28952026 14.80384827 C49.57037942 16.51746118 47.84776796 18.22753444 46.125 19.9375 C44.94768362 21.10979204 43.77059826 22.28231614 42.59375 23.45507812 C39.73182511 26.30606982 36.86678543 29.15389615 34 32 C39.79336716 39.11285292 46.35857994 45.4353297 52.875 51.875 C55.16689608 54.14039287 57.45551186 56.40902673 59.7421875 58.6796875 C60.53422073 59.45927322 60.53422073 59.45927322 61.34225464 60.25460815 C62.5804402 61.48429329 63.79313757 62.73955877 65 64 C65 64.33 65 64.66 65 65 C43.55 65 22.1 65 0 65 C0 43.55 0 22.1 0 0 Z " fill="#7851BE" transform="translate(1,1)"/>
<path d="M0 0 C21.45 0 42.9 0 65 0 C61.01210497 4.6525442 57.06156223 9.07770099 52.7265625 13.37109375 C52.15795502 13.93828629 51.58934753 14.50547882 51.00350952 15.08985901 C49.21303764 16.87479913 47.41909516 18.65620256 45.625 20.4375 C44.39950677 21.65796939 43.17424428 22.87867053 41.94921875 24.09960938 C38.96880226 27.06908756 35.98527106 30.03540257 33 33 C28.34165881 29.10451907 23.91391226 25.06301094 19.62890625 20.76171875 C19.06171371 20.19548294 18.49452118 19.62924713 17.91014099 19.04585266 C16.72670827 17.86309421 15.54451227 16.67909712 14.36352539 15.49389648 C12.54622764 13.67117911 10.72356975 11.85394191 8.90039062 10.03710938 C7.74707453 8.88313353 6.59406809 7.7288481 5.44140625 6.57421875 C4.89464737 6.0294841 4.34788849 5.48474945 3.78456116 4.92350769 C0 1.11498901 0 1.11498901 0 0 Z " fill="#B596F0" transform="translate(1,1)"/>
<path d="M0 0 C4.57501695 3.9214431 8.93250354 7.79220163 13.15234375 12.0546875 C13.69734024 12.60109894 14.24233673 13.14751038 14.80384827 13.71047974 C16.51746118 15.42962058 18.22753444 17.15223204 19.9375 18.875 C21.10979204 20.05231638 22.28231614 21.22940174 23.45507812 22.40625 C26.30606982 25.26817489 29.15389615 28.13321457 32 31 C26.71120198 37.47243666 20.83581643 43.31646398 14.92114258 49.20922852 C13.17085124 50.95409718 11.42604674 52.70432783 9.68164062 54.45507812 C8.57323772 55.56282133 7.46452524 56.6702549 6.35546875 57.77734375 C5.57117744 58.5646714 5.57117744 58.5646714 4.77104187 59.36790466 C1.114991 63 1.114991 63 0 63 C0 42.21 0 21.42 0 0 Z " fill="#82739F" transform="translate(1,2)"/>
</svg>
